<svg xmlns="http://www.w3.org/2000/svg" width="8.5in" height="11in" viewBox="0 0 8.5 11">
	<defs>
		<rect id="blank" width="0.375" height="0.375" transform="translate(-0.1875, 0)" fill="none" stroke="silver" stroke-width="0.01" />
		<path class="pigpen" id="pigpen-a" d="M 1 0 L 1 1 0 1" />
		<path class="pigpen" id="pigpen-b" d="M 1 0 L 1 1 0 1 0 0" />
		<path class="pigpen" id="pigpen-c" d="M 0 0 L 0 1 1 1" />
		<path class="pigpen" id="pigpen-d" d="M 0 0 L 1 0 1 1 0 1" />
		<path class="pigpen" id="pigpen-e" d="M 0 0 L 1 0 1 1 0 1 0 0 z" />
		<path class="pigpen" id="pigpen-f" d="M 1 0 L 0 0 0 1 1 1" />
		<path class="pigpen" id="pigpen-g" d="M 0 0 L 1 0 1 1" />
		<path class="pigpen" id="pigpen-h" d="M 0 1 L 0 0 1 0 1 1" />
		<path class="pigpen" id="pigpen-i" d="M 1 0 L 0 0 0 1" />
		<g class="pigpen" id="pigpen-j">
			<path class="pigpen" d="M 1 0 L 1 1 0 1" />
			<ellipse cx="0.5" cy="0.5" rx="0.15" ry="0.15" fill="black" />
		</g>
		<g class="pigpen" id="pigpen-k">
			<path d="M 1 0 L 1 1 0 1 0 0" />
			<ellipse cx="0.5" cy="0.5" rx="0.15" ry="0.15" fill="black" />
		</g>
		<g class="pigpen" id="pigpen-l">
			<path d="M 0 0 L 0 1 1 1" />
			<ellipse cx="0.5" cy="0.5" rx="0.15" ry="0.15" fill="black" />
		</g>
		<g class="pigpen" id="pigpen-m">
			<path d="M 0 0 L 1 0 1 1 0 1" />
			<ellipse cx="0.5" cy="0.5" rx="0.15" ry="0.15" fill="black" />
		</g>
		<g class="pigpen" id="pigpen-n">
			<path d="M 0 0 L 1 0 1 1 0 1 0 0 z" />
			<ellipse cx="0.5" cy="0.5" rx="0.15" ry="0.15" fill="black" />
		</g>
		<g class="pigpen" id="pigpen-o">
			<path d="M 1 0 L 0 0 0 1 1 1" />
			<ellipse cx="0.5" cy="0.5" rx="0.15" ry="0.15" fill="black" />
		</g>
		<g class="pigpen" id="pigpen-p">
			<path d="M 0 0 L 1 0 1 1" />
			<ellipse cx="0.5" cy="0.5" rx="0.15" ry="0.15" fill="black" />
		</g>
		<g class="pigpen" id="pigpen-q">
			<path d="M 0 1 L 0 0 1 0 1 1" />
			<ellipse cx="0.5" cy="0.5" rx="0.15" ry="0.15" fill="black" />
		</g>
		<g class="pigpen" id="pigpen-r">
			<path d="M 1 0 L 0 0 0 1" />
			<ellipse cx="0.5" cy="0.5" rx="0.15" ry="0.15" fill="black" />
		</g>
		<path class="pigpen" id="pigpen-s" d="M 0 0 L 0.5 1 1 0" />
		<path class="pigpen" id="pigpen-t" d="M 0 0 L 1,0.5 0,1" />
		<path class="pigpen" id="pigpen-u" d="M 1,0 L 0,0.5 1,1" />
		<path class="pigpen" id="pigpen-v" d="M 0,1 L 0.5,0 1,1" />
		<g class="pigpen" id="pigpen-w">
			<path d="M 0 0 L 0.5 1 1 0" />
			<ellipse cx="0.5" cy="0.3" rx="0.15" ry="0.15" fill="black" />
		</g>
		<g class="pigpen" id="pigpen-x">
			<path d="M 0 0 L 1,0.5 0,1" />
			<ellipse cx="0.3" cy="0.5" rx="0.15" ry="0.15" fill="black" />
		</g>
		<g class="pigpen" id="pigpen-y">
			<path d="M 1,0 L 0,0.5 1,1" />
			<ellipse cx="0.7" cy="0.5" rx="0.15" ry="0.15" fill="black" />
		</g>
		<g class="pigpen" id="pigpen-z">
			<path d="M 0,1 L 0.5,0 1,1" />
			<ellipse cx="0.5" cy="0.7" rx="0.15" ry="0.15" fill="black" />
		</g>
	</defs>
	<style>
		@import url('https://fonts.googleapis.com/css2?family=Lato&amp;display=swap');
		rect.theme, line.theme {
			fill: none;
			stroke: #FFDF00;
			stroke-width: 0.25;
		}
		path.theme {
			fill: #FFDF00;
			stroke: none;
		}
		text.pigpen {
			text-anchor: middle;
			alignment-baseline: middle;
			font-family: Consolas;
			font-size: 1px;
		}
		path.pigpen, .pigpen path {
			fill: none;
			stroke: black;
			stroke-width: 0.1;
			stroke-linecap: square;
		}
	</style>
	
	<g id="border">
		<rect x="1.125" y="2" width="6.25" height="7" fill="#FFF7C0" />
		<rect class="theme" x="1" y="1" width="6.5" height="9" rx="0.5" ry="0.5" />
		<path id="filler" class="theme" d="M 1.5 1.125 h 5.5
			a 0.375 0.375 0 0 1 0.375 0.375
			v 0.5 h -6.25 v -0.5
			a 0.375 0.375 0 0 1 0.375 -0.375" fill="none" stroke-width="0.01" />
		<use href="#filler" transform="translate(0, 8) rotate(180, 4.25, 1.5)"/>
		
		<text x="1" y="2" font-family="Lato" font-size="0.75" fill="black" transform="translate(0.5, -0.25)">Level 3</text>

		<!--text x="1" y="9.75" alignment-baseline="middle" font-family="Lato" font-size="0.25" font-weight="bold" fill="white" transform="translate(0.5, -0.25)">Hint:</text-->
		<!--rect x="2.25" y="9.125" width="3.5" height="0.75" fill="none" stroke="white" stroke-width="0.05" /-->
		<rect x="6.25" y="9.125" width="0.75" height="0.75" fill="#FFF7C0" stroke="black" stroke-width="0.05" />
		<line class="theme" x1="1" y1="5.5" x2="7.5" y2="5.5" />
		<g transform="translate(1.5, 2.625)scale(0.75)">
			<use href="#pigpen-i" transform="scale(0.5)" />
			<use href="#pigpen-t" transform="scale(0.5) translate(1.5, 0)" />
			<use href="#pigpen-i" transform="scale(0.5) translate(4, 0)" />
			<use href="#pigpen-s" transform="scale(0.5) translate(5.5, 0)" />

			<use href="#pigpen-g" transform="scale(0.5) translate(0, 1.5)" />
			<use href="#pigpen-u" transform="scale(0.5) translate(1.5, 1.5)" />
			<use href="#pigpen-a" transform="scale(0.5) translate(3, 1.5)" />
			<use href="#pigpen-r" transform="scale(0.5) translate(4.5, 1.5)" />
			<use href="#pigpen-d" transform="scale(0.5) translate(6, 1.5)" />
			<use href="#pigpen-e" transform="scale(0.5) translate(7.5, 1.5)" />
			<use href="#pigpen-d" transform="scale(0.5) translate(9, 1.5)" />

			<use href="#pigpen-b" transform="scale(0.5) translate(0, 3)" />
			<use href="#pigpen-y" transform="scale(0.5) translate(1.5, 3)" />
			<use href="#pigpen-a" transform="scale(0.5) translate(4, 3)" />

			<use href="#pigpen-g" transform="scale(0.5) translate(0, 4.5)" />
			<use href="#pigpen-i" transform="scale(0.5) translate(1.5, 4.5)" />
			<use href="#pigpen-a" transform="scale(0.5) translate(3, 4.5)" />
			<use href="#pigpen-n" transform="scale(0.5) translate(4.5, 4.5)" />
			<use href="#pigpen-t" transform="scale(0.5) translate(6, 4.5)" />

			<use href="#pigpen-t" transform="scale(0.5) translate(0, 6)" />
			<use href="#pigpen-o" transform="scale(0.5) translate(1.5, 6)" />
			<use href="#pigpen-a" transform="scale(0.5) translate(3, 6)" />
			<use href="#pigpen-d" transform="scale(0.5) translate(4.5, 6)" />
		</g>
	</g>
	<g id="top" transform="translate(1.125, 2)">
		<text x="0" y="0" font-family="Lato" font-size="0.375" fill="black" transform="translate(0.25, 0.5)">Decode this:</text>
	</g>
	<g id="bottom" transform="translate(1.125, 5.625)">
		<text x="0" y="0" font-family="Lato" font-size="0.375" fill="black" transform="translate(0.25, 0.5)">Cipher Helper:</text>
		<g transform="translate(0.125, 1)">
			<svg x="0" y="0" id="pigpen-1" width="1.5" height="1.5" viewBox="0 0 3 3">
				<line x1="0" y1="1" x2="3" y2="1" stroke="black" stroke-width="0.05" />
				<line x1="0" y1="2" x2="3" y2="2" stroke="black" stroke-width="0.05" />
				<line x1="1" y1="0" x2="1" y2="3" stroke="black" stroke-width="0.05" />
				<line x1="2" y1="0" x2="2" y2="3" stroke="black" stroke-width="0.05" />
				<text class="pigpen" x="0.5" y="0.5">A</text>
				<text class="pigpen" x="1.5" y="0.5">B</text>
				<text class="pigpen" x="2.5" y="0.5">C</text>
				<text class="pigpen" x="0.5" y="1.5">D</text>
				<text class="pigpen" x="1.5" y="1.5">E</text>
				<text class="pigpen" x="2.5" y="1.5">F</text>
				<text class="pigpen" x="0.5" y="2.5">G</text>
				<text class="pigpen" x="1.5" y="2.5">H</text>
				<text class="pigpen" x="2.5" y="2.5">I</text>
			</svg>
		</g>
		<g transform="translate(1.75, 1)">
			<svg x="0" y="0" id="pigpen-2" width="1.5" height="1.5" viewBox="0 0 3 3">
				<line x1="0" y1="1" x2="3" y2="1" stroke="black" stroke-width="0.05" />
				<line x1="0" y1="2" x2="3" y2="2" stroke="black" stroke-width="0.05" />
				<line x1="1" y1="0" x2="1" y2="3" stroke="black" stroke-width="0.05" />
				<line x1="2" y1="0" x2="2" y2="3" stroke="black" stroke-width="0.05" />
				<text class="pigpen" x="0.5" y="0.5">J</text>
				<text class="pigpen" x="1.5" y="0.5">K</text>
				<text class="pigpen" x="2.5" y="0.5">L</text>
				<text class="pigpen" x="0.5" y="1.5">M</text>
				<text class="pigpen" x="1.5" y="1.5">N</text>
				<text class="pigpen" x="2.5" y="1.5">O</text>
				<text class="pigpen" x="0.5" y="2.5">P</text>
				<text class="pigpen" x="1.5" y="2.5">Q</text>
				<text class="pigpen" x="2.5" y="2.5">R</text>
				<ellipse cx="0.85" cy="0.85" rx="0.05" ry="0.05" />
				<ellipse cx="1.5" cy="0.85" rx="0.05" ry="0.05" />
				<ellipse cx="2.15" cy="0.85" rx="0.05" ry="0.05" />
				<ellipse cx="0.85" cy="1.5" rx="0.05" ry="0.05" />
				<ellipse cx="1.5" cy="1.85" rx="0.05" ry="0.05" />
				<ellipse cx="2.15" cy="1.5" rx="0.05" ry="0.05" />
				<ellipse cx="0.85" cy="2.15" rx="0.05" ry="0.05" />
				<ellipse cx="1.5" cy="2.25" rx="0.05" ry="0.05" />
				<ellipse cx="2.15" cy="2.15" rx="0.05" ry="0.05" />
			</svg>
		</g>
		<g transform="translate(3.325, 1.125)">
			<svg x="0" y="0" id="pigpen-3" width="1.25" height="1.25" viewBox="0 0 3 3">
				<line x1="0" y1="0" x2="3" y2="3" stroke="black" stroke-width="0.05" />
				<line x1="3" y1="0" x2="0" y2="3" stroke="black" stroke-width="0.05" />
				<text class="pigpen" x="1.5" y="0.5">S</text>
				<text class="pigpen" x="0.5" y="1.5">T</text>
				<text class="pigpen" x="2.5" y="1.5">U</text>
				<text class="pigpen" x="1.5" y="2.5">V</text>
			</svg>
		</g>
		<g transform="translate(4.75, 1.125)">
			<svg x="0" y="0" id="pigpen-4" width="1.25" height="1.25" viewBox="0 0 3 3">
				<line x1="0" y1="0" x2="3" y2="3" stroke="black" stroke-width="0.05" />
				<line x1="3" y1="0" x2="0" y2="3" stroke="black" stroke-width="0.05" />
				<text class="pigpen" x="1.5" y="0.5">W</text>
				<text class="pigpen" x="0.5" y="1.5">X</text>
				<text class="pigpen" x="2.5" y="1.5">Y</text>
				<text class="pigpen" x="1.5" y="2.5">Z</text>
				<ellipse cx="1.5" cy="1.3" rx="0.05" ry="0.05" />
				<ellipse cx="1.3" cy="1.5" rx="0.05" ry="0.05" />
				<ellipse cx="1.7" cy="1.5" rx="0.05" ry="0.05" />
				<ellipse cx="1.5" cy="1.7" rx="0.05" ry="0.05" />
			</svg>
		</g>
	</g>
	<!--g id="hint" transform="translate(2.25, 9.125)">
		<text x="0.125" y="0.25" alignment-baseline="middle" font-size="0.25" font-family="Lato" fill="black">Borders, borders.</text>
		<text x="0.125" y="0.55" alignment-baseline="middle" font-size="0.25" font-family="Lato" fill="black">Look at the borders.</text>
	</g-->
	<text x="8.25" y="10.75" text-anchor="end" alignment-baseline="middle" font-size="0.1" font-family="Lato" fill="black">Created by ExpertCoder14</text>
	<!-- line x1="1.125" y1="2" x2="7.375" y2="2" fill="none" stroke="black" stroke-width="0.01"/ -->
</svg>