<svg xmlns="http://www.w3.org/2000/svg" width="8.5in" height="11in" viewBox="0 0 8.5 11">
	<defs>
		<rect id="blank" width="0.375" height="0.375" transform="translate(-0.1875, 0)" fill="none" stroke="silver" stroke-width="0.01" />
	</defs>
	<style>
		@import url('https://fonts.googleapis.com/css2?family=Lato&amp;display=swap');
		rect.theme {
			fill: none;
			stroke: #FF0000;
			stroke-width: 0.25;
		}
		line.theme {
			fill: none;
			stroke: #FF0000;
			stroke-width: 0.1;
		}
		path.theme {
			fill: #FF0000;
			stroke: none;
		}
		.table line {
			fill: none;
			stroke: black;
			stroke-width: 0.05px;
		}
		.table text {
			font-family: Consolas;
			alignment-baseline: middle;
			text-anchor: middle;
			font-size: 0.75px;
		}
		.table text.header {
			font-family: sans-serif;
		}
	</style>
	
	<g id="border">
		<rect x="1.125" y="2" width="6.25" height="7" fill="#FFC0C0" />
		<rect class="theme" x="1" y="1" width="6.5" height="9" rx="0.5" ry="0.5" />
		<path id="filler" class="theme" d="M 1.5 1.125 h 5.5
			a 0.375 0.375 0 0 1 0.375 0.375
			v 0.5 h -6.25 v -0.5
			a 0.375 0.375 0 0 1 0.375 -0.375" fill="none" stroke-width="0.01" />
		<use href="#filler" transform="translate(0, 8) rotate(180, 4.25, 1.5)"/>
		
		<text x="1" y="2" font-family="Lato" font-size="0.75" fill="white" transform="translate(0.5, -0.25)">Level 5</text>

		<text x="1" y="9.75" alignment-baseline="middle" font-family="Lato" font-size="0.25" font-weight="bold" fill="white" transform="translate(0.5, -0.25)">Hint:</text>
		<rect x="2.25" y="9.125" width="3.5" height="0.75" fill="none" stroke="white" stroke-width="0.05" />
		<rect x="6.25" y="9.125" width="0.75" height="0.75" fill="#FFC0C0" stroke="black" stroke-width="0.05" />
		<line class="theme" x1="4.25" y1="1.125" x2="4.25" y2="9" />
		
	</g>
	<g id="left" transform="translate(1.125, 2)">
		<text x="0" y="0" font-family="Lato" font-size="0.25" fill="black" transform="translate(0.25, 0.25)">Decode this:</text>
		<g class="table" transform="translate(0.25, 0.375)">
			<svg id="table-a" width="2.25" height="6.5" viewBox="0 0 10 30">
				<line x1="1" y1="0" x2="1" y2="30" style="stroke: silver;" />
				<line x1="2" y1="0" x2="2" y2="30" style="stroke: silver;" />
				<line x1="3" y1="0" x2="3" y2="30" style="stroke: silver;" />
				<line x1="4" y1="0" x2="4" y2="30" style="stroke: silver;" />
				<line x1="5" y1="0" x2="5" y2="30" style="stroke: silver;" />
				<line x1="6" y1="0" x2="6" y2="30" style="stroke: silver;" />
				<line x1="7" y1="0" x2="7" y2="30" style="stroke: silver;" />
				<line x1="0" y1="1" x2="10" y2="1" style="stroke-width: 0.1px;" />
				<line x1="0" y1="2" x2="10" y2="2" />
				<line x1="0" y1="3" x2="10" y2="3" />
				<line x1="0" y1="4" x2="10" y2="4" />
				<line x1="0" y1="5" x2="10" y2="5" />
				<line x1="0" y1="6" x2="10" y2="6" />
				<line x1="0" y1="7" x2="10" y2="7" />
				<line x1="0" y1="8" x2="10" y2="8" />
				<line x1="0" y1="9" x2="10" y2="9" />
				<line x1="0" y1="10" x2="10" y2="10" />
				<line x1="0" y1="11" x2="10" y2="11" />
				<line x1="0" y1="12" x2="10" y2="12" />
				<line x1="0" y1="13" x2="10" y2="13" />
				<line x1="0" y1="14" x2="10" y2="14" />
				<line x1="0" y1="15" x2="10" y2="15" />
				<line x1="0" y1="16" x2="10" y2="16" />
				<line x1="0" y1="17" x2="10" y2="17" />
				<line x1="0" y1="18" x2="10" y2="18" />
				<line x1="0" y1="19" x2="10" y2="19" />
				<line x1="0" y1="20" x2="10" y2="20" />
				<line x1="0" y1="21" x2="10" y2="21" />
				<line x1="0" y1="22" x2="10" y2="22" />
				<line x1="0" y1="23" x2="10" y2="23" />
				<line x1="0" y1="24" x2="10" y2="24" />
				<line x1="0" y1="25" x2="10" y2="25" />
				<line x1="0" y1="26" x2="10" y2="26" />
				<line x1="0" y1="27" x2="10" y2="27" />
				<line x1="0" y1="28" x2="10" y2="28" />
				<line x1="0" y1="29" x2="10" y2="29" />
				<text class="header" x="0.5" y="0.5" font-size="0.75px">64</text>
				<text class="header" x="1.5" y="0.5" text-anchor="middle" alignment-baseline="middle" font-size="0.75px">32</text>
				<text class="header" x="2.5" y="0.5" text-anchor="middle" alignment-baseline="middle" font-size="0.75px">16</text>
				<text class="header" x="3.5" y="0.5" text-anchor="middle" alignment-baseline="middle" font-size="0.75px">8</text>
				<text class="header" x="4.5" y="0.5" text-anchor="middle" alignment-baseline="middle" font-size="0.75px">4</text>
				<text class="header" x="5.5" y="0.5" text-anchor="middle" alignment-baseline="middle" font-size="0.75px">2</text>
				<text class="header" x="6.5" y="0.5" text-anchor="middle" alignment-baseline="middle" font-size="0.75px">1</text>
				<text class="header" x="8.5" y="0.5" text-anchor="middle" alignment-baseline="middle" style="font-size: 0.5px">Your guess</text>
			</svg>
		</g>
	</g>
	<g id="right" transform="translate(4.25, 2)">
		<text x="0" y="0" font-family="Lato" font-size="0.25" fill="black" transform="translate(0.25, 0.25)">Cipher Helper:</text>

		<g class="table" transform="translate(-0.5, 0.5)">
			<svg id="table-b" width="2" height="6" viewBox="0 0 4 34">
				<line x1="0" y1="1" x2="4" y2="1" style="stroke-width: 0.1px;" />
				<line x1="2" y1="0" x2="2" y2="34" style="stroke-width: 0.1px;" />
				<text class="header" x="1" y="0.5" text-anchor="middle" alignment-baseline="middle" font-size="0.75px">Num</text>
				<text class="header" x="3" y="0.5" text-anchor="middle" alignment-baseline="middle" font-size="0.75px">Char</text>
			</svg>
		</g>

		<g class="table" transform="translate(0.5, 0.5)">
			<svg id="table-c" width="2" height="6" viewBox="0 0 4 33">
				<line x1="0" y1="1" x2="4" y2="1" style="stroke-width: 0.1px;" />
				<line x1="2" y1="0" x2="2" y2="33" style="stroke-width: 0.1px;" />
				<text class="header" x="1" y="0.5" text-anchor="middle" alignment-baseline="middle" font-size="0.75px">Num</text>
				<text class="header" x="3" y="0.5" text-anchor="middle" alignment-baseline="middle" font-size="0.75px">Char</text>
			</svg>
		</g>

		<g class="table" transform="translate(1.5, 0.5)">
			<svg id="table-d" width="2" height="6" viewBox="0 0 4 31">
				<line x1="0" y1="1" x2="4" y2="1" style="stroke-width: 0.1px;" />
				<line x1="2" y1="0" x2="2" y2="31" style="stroke-width: 0.1px;" />
				<text class="header" x="1" y="0.5" text-anchor="middle" alignment-baseline="middle" font-size="0.75px">Num</text>
				<text class="header" x="3" y="0.5" text-anchor="middle" alignment-baseline="middle" font-size="0.75px">Char</text>
			</svg>
		</g>
	</g>
	<g id="hint" transform="translate(2.25, 9.125)">
		<text x="0.125" y="0.25" alignment-baseline="middle" font-size="0.25" font-family="Lato" fill="white">Each row is one letter.</text>
		<text x="0.125" y="0.55" alignment-baseline="middle" font-size="0.25" font-family="Lato" fill="white">Look at the Scratch example</text>
	</g>
	<text x="8.25" y="10.75" text-anchor="end" alignment-baseline="middle" font-size="0.1" font-family="Lato" fill="black">Created by ExpertCoder14</text>
	<!-- line x1="1.125" y1="2" x2="7.375" y2="2" fill="none" stroke="black" stroke-width="0.01"/ -->
	<script href="script.js"></script>
</svg>