<svg xmlns="http://www.w3.org/2000/svg" width="8.5in" height="11in" viewBox="0 0 8.5 11">
	<defs>
		<rect id="blank" width="0.375" height="0.375" transform="translate(-0.1875, 0)" fill="none" stroke="silver" stroke-width="0.01" />
	</defs>
	<style>
		@import url('https://fonts.googleapis.com/css2?family=Lato&amp;display=swap');
		rect.theme, line.theme {
			fill: none;
			stroke: #000000;
			stroke-width: 0.25;
		}
		path.theme {
			fill: #000000;
			stroke: none;
		}
		.table text {
			font-family: Consolas;
			alignment-baseline: middle;
			text-anchor: middle;
			font-size: 0.75px;
		}
		.table line {
			fill: none;
			stroke: black;
			stroke-width: 0.05px;
		}
	</style>
	
	<g id="border">
		<rect x="1.125" y="2" width="6.25" height="7" fill="#C0C0C0" />
		<rect class="theme" x="1" y="1" width="6.5" height="9" rx="0.5" ry="0.5" />
		<path id="filler" class="theme" d="M 1.5 1.125 h 5.5
			a 0.375 0.375 0 0 1 0.375 0.375
			v 0.5 h -6.25 v -0.5
			a 0.375 0.375 0 0 1 0.375 -0.375" fill="none" stroke-width="0.01" />
		<use href="#filler" transform="translate(0, 8) rotate(180, 4.25, 1.5)"/>
		
		<text x="1" y="2" font-family="Lato" font-size="0.75" fill="white" transform="translate(0.5, -0.25)">FINAL</text>

		<text x="1" y="9.75" alignment-baseline="middle" font-family="Lato" font-size="0.25" font-weight="bold" fill="white" transform="translate(0.5, -0.25)">Hint:</text>
		<rect x="2.25" y="9.125" width="3.5" height="0.75" fill="none" stroke="white" stroke-width="0.05" />
		<rect x="6.25" y="9.125" width="0.75" height="0.75" fill="#C0C0C0" stroke="black" stroke-width="0.05" />
		<line class="theme" x1="1" y1="5.5" x2="7.5" y2="5.5" />
	</g>
	<g id="top" transform="translate(1.125, 2)">
		<text x="0" y="0" font-family="Lato" font-size="0.375" fill="black" transform="translate(0.25, 0.5)">Decode this:</text>
		<text x="3.125" y="1.5" text-anchor="middle" alignment-baseline="middle" font-family="Consolas" font-size="0.375" fill="black">znk ykixkz cuxj oy hashkxynuuz</text>
	</g>
	<g id="bottom" transform="translate(1.125, 5.625)">
		<text x="0" y="0" font-family="Lato" font-size="0.375" fill="black" transform="translate(0.25, 0.5)">Cipher Helper:</text>
		<g class="table" transform="translate(0.25, 0.5)">
			<svg id="table-a" width="5.5" height="1.5" viewBox="0 0 13 2">
				<line x1="0" y1="1" x2="13" y2="1" style="stroke: gray;"/>
			</svg>
		</g>
		<g class="table" transform="translate(0.25, 1.5)">
			<svg id="table-b" width="5.5" height="1.5" viewBox="0 0 13 2">
				<line x1="0" y1="1" x2="13" y2="1" style="stroke: gray;"/>
			</svg>
		</g>
	</g>
	<g id="hint" transform="translate(2.25, 9.125)">
		<text x="0.125" y="0.25" alignment-baseline="middle" font-size="0.25" font-family="Lato" fill="white">Use what you got from</text>
		<text x="0.125" y="0.55" alignment-baseline="middle" font-size="0.25" font-family="Lato" fill="white">Level 5 to crack this one!</text>
	</g>
	<text x="8.25" y="10.75" text-anchor="end" alignment-baseline="middle" font-size="0.1" font-family="Lato" fill="black">Created by ExpertCoder14</text>
	<!-- line x1="1.125" y1="2" x2="7.375" y2="2" fill="none" stroke="black" stroke-width="0.01"/ -->
	<script href="script_final.js"></script>
</svg>