<svg xmlns="http://www.w3.org/2000/svg" width="8.5in" height="11in" viewBox="0 0 8.5 11">
	<defs>
		<rect id="blank" width="0.375" height="0.375" transform="translate(-0.1875, 0)" fill="none" stroke="silver" stroke-width="0.01" />
	</defs>
	<style>
		@import url('https://fonts.googleapis.com/css2?family=Lato&amp;display=swap');
		rect.theme, line.theme {
			fill: none;
			stroke: #FFA500;
			stroke-width: 0.25;
		}
		path.theme {
			fill: #FFA500;
			stroke: none;
		}
		line.table {
			fill: none;
			stroke: black;
			stroke-width: 0.05px;
		}
		line.table.strong {
			stroke-width: 0.1px;
		}
		.cipher text {
			font-family: Consolas;
		}
	</style>
	
	<g id="border">
		<rect x="1.125" y="2" width="6.25" height="7" fill="#FFE9C0" />
		<rect class="theme" x="1" y="1" width="6.5" height="9" rx="0.5" ry="0.5" />
		<path id="filler" class="theme" d="M 1.5 1.125 h 5.5
			a 0.375 0.375 0 0 1 0.375 0.375
			v 0.5 h -6.25 v -0.5
			a 0.375 0.375 0 0 1 0.375 -0.375" fill="none" stroke-width="0.01" />
		<use href="#filler" transform="translate(0, 8) rotate(180, 4.25, 1.5)"/>
		
		<text x="1" y="2" font-family="Lato" font-size="0.75" fill="white" transform="translate(0.5, -0.25)">Level 4</text>

		<!--text x="1" y="9.75" alignment-baseline="middle" font-family="Lato" font-size="0.25" font-weight="bold" fill="white" transform="translate(0.5, -0.25)">Hint:</text-->
		<!--rect x="2.25" y="9.125" width="3.5" height="0.75" fill="none" stroke="white" stroke-width="0.05" /-->
		<rect x="6.25" y="9.125" width="0.75" height="0.75" fill="#FFE9C0" stroke="black" stroke-width="0.05" />
		<line class="theme" x1="1" y1="5.5" x2="7.5" y2="5.5" />
		
	</g>
	<g id="top" transform="translate(1.125, 2)">
		<text x="0" y="0" font-family="Lato" font-size="0.375" fill="black" transform="translate(0.25, 0.5)">Decode this:</text>
		<text transform="translate(0.25)" font-family="Consolas" font-size="0.25" fill="black">
			<tspan x="0" y="1">daadxa aaxaddgx gxaxgaga xadd</tspan>
			<tspan x="0" y="1.75">gxfgax ddaxdxggaxgx xfadggfa</tspan>
		</text>
	</g>
	<g id="bottom" transform="translate(1.125, 5.625)">
		<text x="0" y="0" font-family="Lato" font-size="0.375" fill="black" transform="translate(0.25, 0.5)">Cipher Helper:</text>
		<g class="cipher" transform="translate(2, 0.75)">
			<svg width="2.25" height="2.25" viewBox="0 0 6 6" >
				<line class="table strong" x1="1" y1="0" x2="6" y2="0" />
				<line class="table strong" x1="0" y1="1" x2="6" y2="1" />
				<line class="table" x1="0" y1="2" x2="6" y2="2" />
				<line class="table" x1="0" y1="3" x2="6" y2="3" />
				<line class="table" x1="0" y1="4" x2="6" y2="4" />
				<line class="table" x1="0" y1="5" x2="6" y2="5" />
				<line class="table" x1="0" y1="6" x2="6" y2="6" />
				<line class="table strong" x1="0" y1="1" x2="0" y2="6" />
				<line class="table strong" x1="1" y1="0" x2="1" y2="6" />
				<line class="table" x1="2" y1="0" x2="2" y2="6" />
				<line class="table" x1="3" y1="0" x2="3" y2="6" />
				<line class="table" x1="4" y1="0" x2="4" y2="6" />
				<line class="table" x1="5" y1="0" x2="5" y2="6" />
				<line class="table" x1="6" y1="0" x2="6" y2="6" />
				<text x="1.5" y="0.5" text-anchor="middle" alignment-baseline="middle" font-size="0.75">A</text>
				<text x="2.5" y="0.5" text-anchor="middle" alignment-baseline="middle" font-size="0.75">D</text>
				<text x="3.5" y="0.5" text-anchor="middle" alignment-baseline="middle" font-size="0.75">F</text>
				<text x="4.5" y="0.5" text-anchor="middle" alignment-baseline="middle" font-size="0.75">G</text>
				<text x="5.5" y="0.5" text-anchor="middle" alignment-baseline="middle" font-size="0.75">X</text>

				<text x="0.5" y="1.5" text-anchor="middle" alignment-baseline="middle" font-size="0.75">A</text>
				<text x="1.5" y="1.5" text-anchor="middle" alignment-baseline="middle" font-size="0.75">M</text>
				<text x="2.5" y="1.5" text-anchor="middle" alignment-baseline="middle" font-size="0.75">O</text>
				<text x="3.5" y="1.5" text-anchor="middle" alignment-baseline="middle" font-size="0.75">N</text>
				<text x="4.5" y="1.5" text-anchor="middle" alignment-baseline="middle" font-size="0.75">K</text>
				<text x="5.5" y="1.5" text-anchor="middle" alignment-baseline="middle" font-size="0.75">E</text>

				<text x="0.5" y="2.5" text-anchor="middle" alignment-baseline="middle" font-size="0.75">D</text>
				<text x="1.5" y="2.5" text-anchor="middle" alignment-baseline="middle" font-size="0.75">Y</text>
				<text x="2.5" y="2.5" text-anchor="middle" alignment-baseline="middle" font-size="0.75">S</text>
				<text x="3.5" y="2.5" text-anchor="middle" alignment-baseline="middle" font-size="0.75">A</text>
				<text x="4.5" y="2.5" text-anchor="middle" alignment-baseline="middle" font-size="0.75">B</text>
				<text x="5.5" y="2.5" text-anchor="middle" alignment-baseline="middle" font-size="0.75">C</text>

				<text x="0.5" y="3.5" text-anchor="middle" alignment-baseline="middle" font-size="0.75">F</text>
				<text x="1.5" y="3.5" text-anchor="middle" alignment-baseline="middle" font-size="0.75">D</text>
				<text x="2.5" y="3.5" text-anchor="middle" alignment-baseline="middle" font-size="0.75">F</text>
				<text x="3.5" y="3.5" text-anchor="middle" alignment-baseline="middle" font-size="0.75">G</text>
				<text x="4.5" y="3.5" text-anchor="middle" alignment-baseline="middle" font-size="0.75">H</text>
				<text x="5.5" y="3.5" text-anchor="middle" alignment-baseline="middle" font-size="0.75">I</text>

				<text x="0.5" y="4.5" text-anchor="middle" alignment-baseline="middle" font-size="0.75">G</text>
				<text x="1.5" y="4.5" text-anchor="middle" alignment-baseline="middle" font-size="0.75">L</text>
				<text x="2.5" y="4.5" text-anchor="middle" alignment-baseline="middle" font-size="0.75">P</text>
				<text x="3.5" y="4.5" text-anchor="middle" alignment-baseline="middle" font-size="0.75">Q</text>
				<text x="4.5" y="4.5" text-anchor="middle" alignment-baseline="middle" font-size="0.75">R</text>
				<text x="5.5" y="4.5" text-anchor="middle" alignment-baseline="middle" font-size="0.75">T</text>

				<text x="0.5" y="5.5" text-anchor="middle" alignment-baseline="middle" font-size="0.75">X</text>
				<text x="1.5" y="5.5" text-anchor="middle" alignment-baseline="middle" font-size="0.75">U</text>
				<text x="2.5" y="5.5" text-anchor="middle" alignment-baseline="middle" font-size="0.75">V</text>
				<text x="3.5" y="5.5" text-anchor="middle" alignment-baseline="middle" font-size="0.75">W</text>
				<text x="4.5" y="5.5" text-anchor="middle" alignment-baseline="middle" font-size="0.75">X</text>
				<text x="5.5" y="5.5" text-anchor="middle" alignment-baseline="middle" font-size="0.75">Z</text>
			</svg>
		</g>
	</g>
	<!--g id="hint" transform="translate(2.25, 9.125)">
		<text x="0.125" y="0.25" alignment-baseline="middle" font-size="0.25" font-family="Lato" fill="white">Top word on top</text>
		<text x="0.125" y="0.55" alignment-baseline="middle" font-size="0.25" font-family="Lato" fill="white">Bottom word on bottom</text>
	</g-->
	<text x="8.25" y="10.75" text-anchor="end" alignment-baseline="middle" font-size="0.1" font-family="Lato" fill="black">Created by ExpertCoder14</text>
	<!-- line x1="1.125" y1="2" x2="7.375" y2="2" fill="none" stroke="black" stroke-width="0.01"/ -->
</svg>